<svg xmlns="http&#58;//www.w3.org/2000/svg" width="1440" height="2048" viewBox="0 0 1440 2048" data-page-id="H08">
<rect x="0" y="0" width="1440" height="2048" fill="#ffffff"/>
<rect x="766" y="186" width="548" height="1068" fill="#fafafa"/>
<line x1="760" y1="180" x2="1320" y2="180" stroke="#202020" stroke-width="12"/>
<line x1="1320" y1="180" x2="1320" y2="1260" stroke="#202020" stroke-width="12"/>
<line x1="760" y1="180" x2="760" y2="1260" stroke="#202020" stroke-width="12"/>
<rect x="120" y="420" width="520" height="1280" fill="#fafafa" stroke="#202020" stroke-width="12"/>
<rect x="1120" y="330" width="28" height="300" rx="6" fill="#303030"/>
<rect x="1170" y="330" width="28" height="300" rx="6" fill="#303030"/>
<rect x="900" y="520" width="28" height="300" rx="6" fill="#303030"/>
<rect x="950" y="520" width="28" height="300" rx="6" fill="#303030"/>
<rect x="240" y="650" width="270" height="28" rx="6" fill="#303030"/>
<rect x="240" y="704" width="270" height="28" rx="6" fill="#303030"/>
<rect x="850" y="1330" width="300" height="28" rx="6" fill="#303030"/>
<rect x="850" y="1384" width="300" height="28" rx="6" fill="#303030"/>
</svg>
